# xmcd
#
# Track frame offsets:
#	150
#	10065
#	40022
#	75075
#	105405
#	140852
#	153272
#	193290
#	221434
#	238387
#
# Disc length: 3942 seconds
#
# Revision: 0
# Processed by: cddbd v1.5.2PL0 Copyright (c) Steve Scherf et al.
# Submitted via: EasyCDDAExtractor 2011.0.0.0
#
DISCID=7c0f640a
DTITLE=김일륜 - 농현
DYEAR=1998
DGENRE=Bass
TTITLE0=다스름
TTITLE1=진양조 - 우조, 변우조, 돌장
TTITLE2=진양조 - 봉황조, 평계면, 변계면
TTITLE3=진양조 - 진계면, 석화제, 생삼청
TTITLE4=중모리
TTITLE5=중중모리
TTITLE6=늦은 자진모리
TTITLE7=자진모리
TTITLE8=휘모리
TTITLE9=짧은산조
EXTD=
EXTT0=
EXTT1=
EXTT2=
EXTT3=
EXTT4=
EXTT5=
EXTT6=
EXTT7=
EXTT8=
EXTT9=
PLAYORDER=
